<?xml version="1.0" encoding="utf-8"?>
<!-- Generator: Adobe Illustrator 23.0.1, SVG Export Plug-In . SVG Version: 6.00 Build 0)  -->
<svg version="1.1" id="Layer_1" xmlns="http://www.w3.org/2000/svg" xmlns:xlink="http://www.w3.org/1999/xlink" x="0px" y="0px"
	 viewBox="0 0 440 380" style="enable-background:new 0 0 440 380;" xml:space="preserve">
<style type="text/css">
	.st0{fill:#FF7F00;}
	.st1{fill:#EFEFEF;}
	.st2{fill:#1D1D1B;}
</style>
<path class="st0" d="M417.43,171.77c-14.16-51.23-49.95-77.49-77.61-85.47c-8.1-2.34-16.47-3.17-24.45-3.11
	c1.99-3.25,3.68-6.43,4.98-9.08c4.42-9.08,7.52-24.62,6.64-35.26S332.67,16,332.67,16s-10.33,4.21-16.74,5.99
	c-6.42,1.77-50.01,3.1-72.81,13.31c-17.18,7.69-17.01,18.01-15.89,23.02c-12.53-6.14-27.14-10.38-43.57-10.38
	c-19.87,0-36.33,8.75-49.38,19.91c-2.39-7.73-8.54-22.48-21.96-28.56C93.74,30.86,70.06,26.42,52.8,24.43s-23.46-5.99-23.46-5.99
	s6.88,32.38,9.3,42.13c2.43,9.76-2.89,37.92,15.26,47.46c13.75,7.23,33.09,13.81,41.65,16.58c-0.35,10.71,3.74,23.49,6.66,29.77
	c4.13,8.87,85.27,44.94,88.22,46.42c0,0,13.11,0.16,24.38-2.35c-2.8,8.07-5.79,15.36-5.79,15.36s-7.75-1.11-35.41-2.88
	c-27.66-1.77-69.27-15.52-69.27-15.52l7.52,15.52l-25.01-4.44l7.75,21.29l-11.29-2.44c0,0,3.54,18.41,2.66,18.41
	c-0.89,0-20.36-11.53-20.36-11.53l-3.98,21.29l-14.61-15.97l-3.32,20.85l-4.87-9.76c0,0-1.33,4.44,2.66,11.75
	c3.98,7.32,30.32,65.42,86.08,87.6c55.77,22.18,139.65,32.02,221.07-17.08C406.55,296,431.59,223,417.43,171.77z"/>
<path class="st1" d="M302.42,143.07c-3.54,1.77-11.06,4.32-11.06,4.32s6.43,2.98,9.52,2.99c3.87,0.02,9.29-1.77,9.29-1.77
	s-12.25,11.26-20.14,15.52c-8.41,4.55-24.34,10.87-34.96,15.97c-10.62,5.1-40.72,27.39-40.72,27.39l-6.64-13.42
	c0.44-0.89-2.95-24.41,1.33-42.13c4.2-17.41,11.63-31.08,32.21-40.39s33.22-9.75,40.38-8.62c7.15,1.14,13.5,4.21,22.13,8.87
	c8.63,4.66,23.9,5.21,23.9,5.21s-12.17,4.77-18.15,8.98c-5.97,4.21-18.15,6.87-18.15,6.87s3.32,3.1,7.3,2.88
	c3.98-0.22,15.49-2.55,15.49-2.55S305.96,141.3,302.42,143.07z M171.42,131.98c-8.85-7.32-25.01-17.3-42.27-20.17
	c-17.26-2.87-30.21-2.67-46.69,5.98c-11.42,5.99-13.5,12.86-19.92,15.75l-12.17,1.77c0,0,12.28,4.99,19.25,5.99
	c6.59,0.94,9.96,1.11,9.96,1.11l-5.09,4.21c-2.88,1.33-13.5,3.79-13.5,3.79s9.52,2.19,13.94,3.08c4.43,0.89,9.96-1.11,9.96-1.11
	s-1.55,6.43-4.87,9.09c-3.32,2.66-9.85,4.66-9.85,4.66s13.83,3.99,24.01,4.88c10.18,0.89,20.02,2.28,34.08,4.66
	c7.83,1.33,29.96,12.47,40.72,17.52c10.76,5.05,26.78,18.52,26.78,18.52l4.2-17.85c0,0-3.87-22.95-8.41-36.37
	C188.68,148.98,180.27,139.3,171.42,131.98z M108.55,194.77c-3.22-2.09-7.33-2.82-10.83-4.26c-4.13-1.7-8.08-3.83-11.83-6.25
	c-16.38-10.58-28.14-26.55-39.54-42.04c-0.66-0.89-2.59,0.38-2.82,1.16c-0.29,1.02-0.54,2-0.75,2.97
	c-5.39-8.01-12.07-14.78-20.06-20.36c-0.75-0.52-3.18,0.81-2.64,1.78c5.14,9.21,5.82,19.41,5.46,29.76
	c-0.38,10.95-1.12,21.79-0.83,32.76c0.19,7,0.18,14.33,0.63,21.63c-0.28,0.26-0.48,0.55-0.46,0.81
	c1.79,20.02,5.91,41.35,19.55,56.87c0.76,0.87,2.33-0.28,2.83-0.94c3.22-4.19,1.96-9.24,2.56-14.04c3.38,4.41,7.54,7.81,12.69,10.31
	c0.98,0.48,2.42-0.51,2.82-1.39c2.75-6.06,4.25-12.13,4.61-18.66c9.68,3.54,19.58,6.05,29.82,7.49c0.74,0.1,2.73-0.69,2.54-1.7
	c-1.38-7.53-4.52-14.07-9.39-19.69c4.37,0.9,8.7,1.95,13,3.18c0.87,0.25,2.82-0.87,2.47-1.91c-2.54-7.58-6.06-14.52-10.64-20.99
	c7.76,1.31,15.55,2.2,23.42,2.63c0.59,0.03,3.1-0.88,2.39-1.85C119.38,206.28,114.64,198.73,108.55,194.77z"/>
<path class="st2" d="M317.25,30.41c-0.44,0.67-2.66,17.3-7.97,28.61s-5.75,26.39-15.27,31.05c-9.52,4.66-24.12,7.22-24.12,7.22
	l-30.76-31.77v-5.38c0-2.66,5.97-16.63,16.15-19.29c10.18-2.66,52.23-5.32,55.77-6.87C314.59,32.41,317.69,29.75,317.25,30.41z
	 M113.22,56.36c-8.41-6.87-19.7-12.64-33.86-16.19c-14.16-3.55-32.97-5.1-32.97-5.1s1.77,1.33,4.2,3.1
	c2.43,1.77,6.86,18.41,7.08,27.34c0.22,8.93,3.32,20.79,11.73,31.65c8.41,10.87,32.98,11.24,32.98,11.24l25.89-32.09
	C128.26,76.32,121.62,63.24,113.22,56.36z M206.01,80.38c0.47-1.05-1.85-0.19-2.16,0.34c-4.51,7.81-11.15,12.75-19.48,16.03
	c-0.9,0.35-2.98,1.59-3.9,1.53c-1.46-0.09-0.18,0.02,0.72-1.59c1.53-2.72,2.9-5.06,3.91-8.05c0.37-1.1-1.36-0.56-1.76-0.35
	c-6.98,3.74-14.47,5.07-22.16,4.18c5.73-2.51,10.48-6.34,14.24-11.64c0.52-0.73-0.23-1.09-0.88-0.9
	c-7.76,2.27-15.42,1.15-23.09-0.52c10.51-3.57,22.79-11.04,25.61-21.73c0.28-1.07-1.82-0.14-2.06,0.5
	c-4.01,10.86-16.52,17.95-27.11,20.6c-0.47,0.12-2.64,1.6-1.27,1.92c6.31,1.47,12.74,2.95,19.26,2.61c1.16-0.06,2.33-0.32,3.48-0.35
	c3.26-0.07,2.28-1.13,1.47,0.82c-1.74,4.19-9.27,7.11-13.18,8.29c-0.43,0.13-2.81,1.74-1.33,2.01c8.88,1.66,17.45,0.47,25.5-3.3
	c-1.34,3.44-3.11,6.29-5.69,9.09c-0.63,0.69-0.32,1.48,0.68,1.17C188.36,97.47,200.77,92.13,206.01,80.38z M203.23,189.42
	c-22.51,1.03-25.28,9.98-25.28,9.98s23.98,19.29,26.59,19.29c2.61,0,23.98-20.62,23.98-20.62S222.73,188.52,203.23,189.42z
	 M163.83,151.7c-3.21,2.6-7.67,2.85-11.91,2.2c-3.39-0.52-9.64-2.79-10.36-3.02c-0.71-0.22-2.15,0.7-1.81,1.36
	c5.08,9.97,19.87,8.36,25.81,0.28c0.04-0.02,0.72-0.94,1.06-1.71C167.16,149.59,164.02,151.55,163.83,151.7z M253.64,146.51
	c-0.72,0.23-6.98,2.5-10.36,3.02c-4.24,0.65-8.69,0.4-11.91-2.2c-0.19-0.16-3.34-2.12-2.79-0.89c0.34,0.78,1.03,1.7,1.06,1.71
	c5.94,8.08,20.74,9.69,25.81-0.28C255.78,147.21,254.34,146.28,253.64,146.51z"/>
</svg>
